<svg width="11" height="13" viewBox="0 0 11 13" fill="none" xmlns="http://www.w3.org/2000/svg">
<path d="M10.625 2.375H8.67969L7.88281 1.0625C7.69531 0.757812 7.27344 0.5 6.92188 0.5H4.55469C4.20312 0.5 3.78125 0.757812 3.59375 1.0625L2.79688 2.375H0.875C0.664062 2.375 0.5 2.5625 0.5 2.75V3.125C0.5 3.33594 0.664062 3.5 0.875 3.5H1.25L1.74219 11.4453C1.76562 12.0312 2.28125 12.5 2.86719 12.5H8.60938C9.19531 12.5 9.71094 12.0312 9.73438 11.4453L10.25 3.5H10.625C10.8125 3.5 11 3.33594 11 3.125V2.75C11 2.5625 10.8125 2.375 10.625 2.375ZM4.55469 1.625H6.92188L7.36719 2.375H4.10938L4.55469 1.625ZM8.60938 11.375H2.86719L2.375 3.5H9.10156L8.60938 11.375Z" fill="#404960"/>
</svg>
