<svg width="30" height="22" viewBox="0 0 30 22" fill="none" xmlns="http://www.w3.org/2000/svg">
<path opacity="0.2" d="M18.5156 11.5625L13.875 6.92188C13.6406 6.6875 13.3125 6.6875 13.0781 6.92188L8.4375 11.5625C8.0625 11.9375 8.34375 12.5 8.85938 12.5H12V16.4375C12 16.7656 12.2344 17 12.5625 17H14.4375C14.7188 17 15 16.7656 15 16.4375V12.5H18.1406C18.6094 12.5 18.8906 11.9375 18.5156 11.5625ZM25.4531 8.42188C25.2656 5.70312 23.0156 3.5 20.25 3.5C19.875 3.5 19.5 3.54688 19.1719 3.64062C17.6719 1.76562 15.375 0.5 12.75 0.5C8.76562 0.5 5.4375 3.3125 4.64062 7.0625C1.82812 8.23438 0 10.9531 0 14C0 18.1719 3.32812 21.5 7.5 21.5H23.25C26.9531 21.5 30 18.5 30 14.75C30 11.8906 28.125 9.35938 25.4531 8.42188ZM23.25 19.25H7.5C4.59375 19.25 2.25 16.9062 2.25 14C2.25 11.375 4.17188 9.17188 6.75 8.84375V8.75C6.75 5.46875 9.42188 2.75 12.75 2.75C15.2344 2.75 17.3906 4.29688 18.2812 6.5C18.7969 6.03125 19.5 5.75 20.25 5.75C21.8906 5.75 23.25 7.10938 23.25 8.75C23.25 9.3125 23.0625 9.82812 22.8281 10.2969C22.9688 10.2969 23.1094 10.25 23.25 10.25C25.7344 10.25 27.75 12.2656 27.75 14.75C27.75 17.2344 25.7344 19.25 23.25 19.25Z" fill="#404960"/>
</svg>
